<svg id="Layer_1" data-name="Layer 1" xmlns="http://www.w3.org/2000/svg" viewBox="0 0 1024 1024"><defs><style>.cls-1{fill:#fff;}</style></defs><title>mjd-logo-final</title><rect class="cls-1" x="509.26" y="354.3" width="51.79" height="236.26"/><path class="cls-1" d="M560.84,560.66V855.27c-.14,62.23-12.38,102.7-47,132C482.21,1013.3,430.36,1024,392.29,1024L385,977.86c32.42-2,60.77-9.36,77.79-24.74,17.29-16.65,25-38.61,26.45-97.85q.27-11,.28-23.86V619.89A265.9,265.9,0,0,1,499,560.66Z"/><rect class="cls-1" x="489.13" y="141.37" width="71.92" height="268.9"/><path class="cls-1" d="M524.66,91.73c29.36,0,47-21,46.14-45.45C570.8,20.2,553.18,0,526.34,0c-27.69,0-47,20.2-47,46.28C479.36,70.69,497,91.73,524.66,91.73Z"/><path class="cls-1" d="M977.83,909.5c29.36,0,47-21,46.14-45.45,0-26.08-17.62-46.28-44.46-46.28-27.69,0-47,20.2-47,46.28C932.53,888.46,950.15,909.5,977.83,909.5Z"/><path class="cls-1" d="M879.6,800.51V309.89H803.78V552.32h-1.72c-19-32.74-62.1-62.09-125.89-62.09-74.66,0-141,44.77-170.62,122-2.42,6.37-4.63,12.95-6.56,19.74a266.09,266.09,0,0,0-9.48,59.24c-.24,5-.38,10-.38,15.09v2c0,5.06.14,10,.38,15,3.51,66.84,30.42,120.58,71.33,153.91a1.12,1.12,0,0,0,.21.18c29.44,23.89,66.11,37.23,106.53,37.23,68.06,0,118.94-34.35,142.24-79.68h1.72L815,905.32H883C880.48,877.69,879.6,836.59,879.6,800.51Zm-75.82-65.43c0,11.76-.88,21.79-3.47,31.93C786.52,822.3,740,855,689.12,855c-81.89,0-123.26-67.92-123.26-150.07,0-89.71,46.56-156.86,125-156.86,56.87,0,98.27,38.61,109.47,85.56,2.59,9.22,3.47,21.78,3.47,31Z"/><path class="cls-1" d="M3.22,384C3.22,342,2.43,307.63,0,274.1H62.15l3.22,65.41H67.8c21.79-38.58,58.14-74.63,122.72-74.63,53.28,0,93.64,33.53,110.6,81.33h1.61c12.09-22.67,27.44-40.22,43.58-52.86,23.4-18.43,49.23-28.47,86.37-28.47,51.66,0,128.37,35.23,128.37,176.11V680H491.61V450.2c0-78-27.45-125-84.76-125-40.36,0-71.85,31-83.94,67.13a125.63,125.63,0,0,0-5.66,36.87V680H247.81V436.75c0-64.53-27.44-111.51-81.51-111.51-44.4,0-76.71,36.88-88,73.82-4,10.86-5.66,23.49-5.66,36.05V680H3.22Z"/><rect class="cls-1" x="489.17" y="374.19" width="59.32" height="328.19"/></svg>